HIERARCHY
ROOT newVegas:Hips
{
	OFFSET 0.000000 96.479958 0.000000
	CHANNELS 6 Xposition Yposition Zposition Xrotation Yrotation Zrotation
	JOINT newVegas:Pelvis
	{
		OFFSET 0.000000 0.000000 0.000000
		CHANNELS 3 Xrotation Yrotation Zrotation
		JOINT newVegas:LeftUpLeg
		{
			OFFSET 18.735201 -5.666702 -4.541200
			CHANNELS 3 Xrotation Yrotation Zrotation
			JOINT newVegas:LeftLeg
			{
				OFFSET -0.021200 -31.938179 0.493100
				CHANNELS 3 Xrotation Yrotation Zrotation
				JOINT newVegas:LeftFoot
				{
					OFFSET 0.021200 -31.938179 -4.336299
					CHANNELS 3 Xrotation Yrotation Zrotation
					JOINT newVegas:LeftToeBase
					{
						OFFSET 0.943001 -26.722000 15.023500
						CHANNELS 3 Xrotation Yrotation Zrotation
						End Site
						{
							OFFSET 0.000000 30.670183 0.000000
						}
					}
				}
				JOINT newVegas:Left_PantLeg
				{
					OFFSET 0.663870 -9.044666 -1.108900
					CHANNELS 3 Xrotation Yrotation Zrotation
					End Site
					{
						OFFSET 1.415995 20.635357 0.000000
					}
				}
			}
		}
		JOINT newVegas:RightUpLeg
		{
			OFFSET -18.735201 -5.666702 -4.541200
			CHANNELS 3 Xrotation Yrotation Zrotation
			JOINT newVegas:RightLeg
			{
				OFFSET 0.018946 -31.938133 0.493100
				CHANNELS 3 Xrotation Yrotation Zrotation
				JOINT newVegas:RightFoot
				{
					OFFSET -0.018946 -31.938126 -4.336299
					CHANNELS 3 Xrotation Yrotation Zrotation
					JOINT newVegas:RightToeBase
					{
						OFFSET -0.943001 -26.722004 15.023500
						CHANNELS 3 Xrotation Yrotation Zrotation
						End Site
						{
							OFFSET 0.000000 30.670187 0.000000
						}
					}
				}
				JOINT newVegas:Right_PantLeg
				{
					OFFSET -0.661674 -9.044716 -1.108900
					CHANNELS 3 Xrotation Yrotation Zrotation
					End Site
					{
						OFFSET -1.415958 20.635269 0.000000
					}
				}
			}
		}
	}
	JOINT newVegas:Spine
	{
		OFFSET 0.000000 10.199997 -0.299500
		CHANNELS 3 Xrotation Yrotation Zrotation
		JOINT newVegas:Spine1
		{
			OFFSET 0.000000 11.900002 -1.516600
			CHANNELS 3 Xrotation Yrotation Zrotation
			JOINT newVegas:Spine2
			{
				OFFSET 0.000000 13.600006 -2.842500
				CHANNELS 3 Xrotation Yrotation Zrotation
				JOINT newVegas:Neck
				{
					OFFSET 0.000000 9.624100 -2.890100
					CHANNELS 3 Xrotation Yrotation Zrotation
					JOINT newVegas:Head
					{
						OFFSET 0.000000 14.068802 -1.351900
						CHANNELS 3 Xrotation Yrotation Zrotation
						JOINT newVegas:Hair_Back
						{
							OFFSET 0.000000 3.231903 -17.524799
							CHANNELS 3 Xrotation Yrotation Zrotation
							End Site
							{
								OFFSET 0.000000 19.849884 0.000000
							}
						}
						JOINT newVegas:Hair_Front
						{
							OFFSET 0.000000 31.260406 4.573800
							CHANNELS 3 Xrotation Yrotation Zrotation
							JOINT newVegas:Hair_Front1
							{
								OFFSET 0.000000 2.284103 11.993300
								CHANNELS 3 Xrotation Yrotation Zrotation
								JOINT newVegas:Hair_Front2
								{
									OFFSET 0.000000 2.284103 11.993300
									CHANNELS 3 Xrotation Yrotation Zrotation
									End Site
									{
										OFFSET 0.000000 12.208862 0.000000
									}
								}
							}
						}
						JOINT newVegas:Jowel
						{
							OFFSET 0.000000 -7.458206 6.864100
							CHANNELS 3 Xrotation Yrotation Zrotation
							End Site
							{
								OFFSET 0.000000 19.849884 0.000000
							}
						}
					}
				}
				JOINT newVegas:LeftShoulder
				{
					OFFSET 15.263000 10.923401 -0.547700
					CHANNELS 3 Xrotation Yrotation Zrotation
					JOINT newVegas:LeftArm
					{
						OFFSET 25.438599 -2.830597 -13.032500
						CHANNELS 3 Xrotation Yrotation Zrotation
						JOINT newVegas:LeftForeArm
						{
							OFFSET 29.960503 0.000000 0.000000
							CHANNELS 3 Xrotation Yrotation Zrotation
							JOINT newVegas:LeftHand
							{
								OFFSET 27.849251 0.000000 0.000000
								CHANNELS 3 Xrotation Yrotation Zrotation
								JOINT newVegas:LeftHandThumb1
								{
									OFFSET 4.487587 -3.305161 6.305391
									CHANNELS 3 Xrotation Yrotation Zrotation
									JOINT newVegas:LeftHandThumb2
									{
										OFFSET 5.480453 -3.164139 3.164143
										CHANNELS 3 Xrotation Yrotation Zrotation
										JOINT newVegas:LeftHandThumb3
										{
											OFFSET 5.159721 -2.978973 2.978967
											CHANNELS 3 Xrotation Yrotation Zrotation
											End Site
											{
												OFFSET 2.494507 5.926697 1.738678
											}
										}
									}
								}
								JOINT newVegas:LeftHandIndex1
								{
									OFFSET 18.578728 -0.527832 5.208049
									CHANNELS 3 Xrotation Yrotation Zrotation
									JOINT newVegas:LeftHandIndex2
									{
										OFFSET 3.192009 0.000000 0.000000
										CHANNELS 3 Xrotation Yrotation Zrotation
										JOINT newVegas:LeftHandIndex3
										{
											OFFSET 3.835129 0.000000 0.000000
											CHANNELS 3 Xrotation Yrotation Zrotation
											End Site
											{
												OFFSET -0.034599 3.816971 0.371180
											}
										}
									}
								}
								JOINT newVegas:LeftHandMiddle1
								{
									OFFSET 18.476105 0.000000 0.000000
									CHANNELS 3 Xrotation Yrotation Zrotation
									JOINT newVegas:LeftHandMiddle2
									{
										OFFSET 3.324875 0.000000 0.000000
										CHANNELS 3 Xrotation Yrotation Zrotation
										JOINT newVegas:LeftHandMiddle3
										{
											OFFSET 4.596550 0.000000 0.000000
											CHANNELS 3 Xrotation Yrotation Zrotation
											End Site
											{
												OFFSET 0.057701 4.578827 0.399218
											}
										}
									}
								}
								JOINT newVegas:LeftHandRing1
								{
									OFFSET 17.732719 0.121887 -4.201567
									CHANNELS 3 Xrotation Yrotation Zrotation
									JOINT newVegas:LeftHandRing2
									{
										OFFSET 2.733170 0.000000 0.000000
										CHANNELS 3 Xrotation Yrotation Zrotation
										JOINT newVegas:LeftHandRing3
										{
											OFFSET 3.178268 0.000000 0.000000
											CHANNELS 3 Xrotation Yrotation Zrotation
											End Site
											{
												OFFSET 0.119102 3.170624 0.185394
											}
										}
									}
								}
								JOINT newVegas:LeftHandPinky1
								{
									OFFSET 15.989624 -0.606689 -7.535461
									CHANNELS 3 Xrotation Yrotation Zrotation
									JOINT newVegas:LeftHandPinky2
									{
										OFFSET 2.538986 0.000000 0.000000
										CHANNELS 3 Xrotation Yrotation Zrotation
										JOINT newVegas:LeftHandPinky3
										{
											OFFSET 2.593102 0.000000 0.000000
											CHANNELS 3 Xrotation Yrotation Zrotation
											End Site
											{
												OFFSET -0.150902 2.584198 0.152708
											}
										}
									}
								}
							}
							JOINT newVegas:Left_Sleeve
							{
								OFFSET 0.267448 -0.649796 0.577675
								CHANNELS 3 Xrotation Yrotation Zrotation
								End Site
								{
									OFFSET 0.000000 15.991241 0.000000
								}
							}
							JOINT newVegas:Left_CapeC
							{
								OFFSET 15.715958 -8.608795 -6.935905
								CHANNELS 3 Xrotation Yrotation Zrotation
								JOINT newVegas:Left_CapeC1
								{
									OFFSET 0.000000 -8.688499 0.000000
									CHANNELS 3 Xrotation Yrotation Zrotation
									End Site
									{
										OFFSET 0.000000 8.688499 0.000000
									}
								}
							}
						}
						JOINT newVegas:Left_CapeB
						{
							OFFSET 26.118385 -8.608795 -7.079235
							CHANNELS 3 Xrotation Yrotation Zrotation
							JOINT newVegas:Left_CapeB1
							{
								OFFSET 0.000000 -8.688499 0.000000
								CHANNELS 3 Xrotation Yrotation Zrotation
								End Site
								{
									OFFSET 0.000000 8.688499 0.000000
								}
							}
						}
						JOINT newVegas:Left_CapeA
						{
							OFFSET 5.115639 -8.608795 -10.395809
							CHANNELS 3 Xrotation Yrotation Zrotation
							JOINT newVegas:Left_CapeA1
							{
								OFFSET 0.000000 -8.688499 0.000000
								CHANNELS 3 Xrotation Yrotation Zrotation
								End Site
								{
									OFFSET 0.000000 8.688499 0.000000
								}
							}
						}
					}
				}
				JOINT newVegas:RightShoulder
				{
					OFFSET -15.263000 10.923401 -0.547700
					CHANNELS 3 Xrotation Yrotation Zrotation
					JOINT newVegas:RightArm
					{
						OFFSET -25.438599 -2.830597 -13.032500
						CHANNELS 3 Xrotation Yrotation Zrotation
						JOINT newVegas:RightForeArm
						{
							OFFSET -29.960503 0.000000 0.000000
							CHANNELS 3 Xrotation Yrotation Zrotation
							JOINT newVegas:RightHand
							{
								OFFSET -27.849251 0.000000 0.000000
								CHANNELS 3 Xrotation Yrotation Zrotation
								JOINT newVegas:RightHandThumb1
								{
									OFFSET -4.487587 -3.305161 6.305391
									CHANNELS 3 Xrotation Yrotation Zrotation
									JOINT newVegas:RightHandThumb2
									{
										OFFSET -5.480453 -3.164139 3.164143
										CHANNELS 3 Xrotation Yrotation Zrotation
										JOINT newVegas:RightHandThumb3
										{
											OFFSET -5.159721 -2.978973 2.978967
											CHANNELS 3 Xrotation Yrotation Zrotation
											End Site
											{
												OFFSET -2.494507 5.926697 1.738678
											}
										}
									}
								}
								JOINT newVegas:RightHandIndex1
								{
									OFFSET -18.578728 -0.527832 5.208049
									CHANNELS 3 Xrotation Yrotation Zrotation
									JOINT newVegas:RightHandIndex2
									{
										OFFSET -3.192009 0.000000 0.000000
										CHANNELS 3 Xrotation Yrotation Zrotation
										JOINT newVegas:RightHandIndex3
										{
											OFFSET -3.835129 0.000000 0.000000
											CHANNELS 3 Xrotation Yrotation Zrotation
											End Site
											{
												OFFSET 0.034599 3.816971 0.371180
											}
										}
									}
								}
								JOINT newVegas:RightHandMiddle1
								{
									OFFSET -18.476105 0.000000 0.000000
									CHANNELS 3 Xrotation Yrotation Zrotation
									JOINT newVegas:RightHandMiddle2
									{
										OFFSET -3.324875 0.000000 0.000000
										CHANNELS 3 Xrotation Yrotation Zrotation
										JOINT newVegas:RightHandMiddle3
										{
											OFFSET -4.596550 0.000000 0.000000
											CHANNELS 3 Xrotation Yrotation Zrotation
											End Site
											{
												OFFSET -0.057701 4.578827 0.399218
											}
										}
									}
								}
								JOINT newVegas:RightHandRing1
								{
									OFFSET -17.732719 0.121887 -4.201567
									CHANNELS 3 Xrotation Yrotation Zrotation
									JOINT newVegas:RightHandRing2
									{
										OFFSET -2.733170 0.000000 0.000000
										CHANNELS 3 Xrotation Yrotation Zrotation
										JOINT newVegas:RightHandRing3
										{
											OFFSET -3.178268 0.000000 0.000000
											CHANNELS 3 Xrotation Yrotation Zrotation
											End Site
											{
												OFFSET -0.119102 3.170624 0.185394
											}
										}
									}
								}
								JOINT newVegas:RightHandPinky1
								{
									OFFSET -15.989624 -0.606689 -7.535461
									CHANNELS 3 Xrotation Yrotation Zrotation
									JOINT newVegas:RightHandPinky2
									{
										OFFSET -2.538986 0.000000 0.000000
										CHANNELS 3 Xrotation Yrotation Zrotation
										JOINT newVegas:RightHandPinky3
										{
											OFFSET -2.593102 0.000000 0.000000
											CHANNELS 3 Xrotation Yrotation Zrotation
											End Site
											{
												OFFSET 0.150902 2.584198 0.152708
											}
										}
									}
								}
							}
							JOINT newVegas:Right_CapeC
							{
								OFFSET -15.715958 -8.608795 -6.935905
								CHANNELS 3 Xrotation Yrotation Zrotation
								JOINT newVegas:Right_CapeC1
								{
									OFFSET 0.000000 -8.688499 0.000000
									CHANNELS 3 Xrotation Yrotation Zrotation
									End Site
									{
										OFFSET 0.000000 8.688499 0.000000
									}
								}
							}
							JOINT newVegas:Right_Sleeve
							{
								OFFSET -0.267448 -0.649994 0.577675
								CHANNELS 3 Xrotation Yrotation Zrotation
								End Site
								{
									OFFSET 0.000000 15.991302 0.000000
								}
							}
						}
						JOINT newVegas:Right_CapeA
						{
							OFFSET -5.115540 -8.608795 -10.395824
							CHANNELS 3 Xrotation Yrotation Zrotation
							JOINT newVegas:Right_CapeA1
							{
								OFFSET 0.000000 -8.688499 0.000000
								CHANNELS 3 Xrotation Yrotation Zrotation
								End Site
								{
									OFFSET 0.000000 8.688499 0.000000
								}
							}
						}
						JOINT newVegas:Right_CapeB
						{
							OFFSET -26.118187 -8.608795 -7.079266
							CHANNELS 3 Xrotation Yrotation Zrotation
							JOINT newVegas:Right_CapeB1
							{
								OFFSET 0.000000 -8.688499 0.000000
								CHANNELS 3 Xrotation Yrotation Zrotation
								End Site
								{
									OFFSET 0.000000 8.688499 0.000000
								}
							}
						}
					}
				}
				JOINT newVegas:Left_Collar
				{
					OFFSET 18.625099 8.655502 8.828100
					CHANNELS 3 Xrotation Yrotation Zrotation
					JOINT newVegas:Left_Collar1
					{
						OFFSET 14.783401 10.540405 -1.259500
						CHANNELS 3 Xrotation Yrotation Zrotation
						End Site
						{
							OFFSET 0.000000 18.199875 0.000000
						}
					}
				}
				JOINT newVegas:Collar_Back
				{
					OFFSET 0.000000 15.630707 -20.132601
					CHANNELS 3 Xrotation Yrotation Zrotation
					End Site
					{
						OFFSET 0.000000 22.523010 0.000000
					}
				}
				JOINT newVegas:Left_Peck
				{
					OFFSET 17.239599 -5.132599 25.482599
					CHANNELS 3 Xrotation Yrotation Zrotation
					End Site
					{
						OFFSET 0.000000 22.523010 0.000000
					}
				}
				JOINT newVegas:Right_Peck
				{
					OFFSET -17.239599 -5.132202 25.482599
					CHANNELS 3 Xrotation Yrotation Zrotation
					End Site
					{
						OFFSET 0.000000 22.523010 0.000000
					}
				}
				JOINT newVegas:Right_Collar
				{
					OFFSET -18.625099 8.655792 8.828100
					CHANNELS 3 Xrotation Yrotation Zrotation
					JOINT newVegas:Right_Collar1
					{
						OFFSET -14.783401 10.539993 -1.259500
						CHANNELS 3 Xrotation Yrotation Zrotation
						End Site
						{
							OFFSET 0.000000 18.199631 0.000000
						}
					}
				}
			}
		}
		JOINT newVegas:Belly
		{
			OFFSET 0.000000 -6.540398 9.014299
			CHANNELS 3 Xrotation Yrotation Zrotation
			End Site
			{
				OFFSET 0.000000 11.566666 0.000000
			}
		}
	}
	JOINT newVegas:ElvisFacialAnim_Joint
	{
		OFFSET 1.000000 -95.330101 -8.825800
		CHANNELS 3 Xrotation Yrotation Zrotation
		End Site
		{
			OFFSET 0.000000 35.315800 0.000000
		}
	}
}
MOTION
Frames: 4
Frame Time: 0.033333
-4.838410 71.650177 31.017693 11.009002 -35.910092 9.344633 -0.000000 -0.000000 0.000000 -53.245484 0.382317 35.374298 16.662805 6.465192 10.122890 36.508778 -6.508147 -31.039761 0.000000 -0.000000 0.000000 0.000000 0.000002 -0.000002 -21.524595 8.339348 -43.999430 45.642691 4.297535 -9.340671 -21.162100 -13.618412 43.954422 -0.000000 0.000001 -0.000000 -0.000001 -0.000003 -0.000006 4.297576 1.720730 -3.643117 3.761276 0.329726 0.031449 3.756797 0.369080 0.040005 2.788060 1.548317 0.334795 2.788067 1.548300 0.334800 -0.000001 -0.000002 -0.000000 2.788069 1.548276 0.334804 2.788050 1.548345 0.334792 -0.000000 -0.000000 0.000000 -0.000001 -0.000002 0.000001 1.971607 -14.838629 -12.371052 -21.740366 -10.215302 -35.416006 -0.000132 -109.065458 -0.000141 -70.791024 -1.193895 39.029480 9.245172 -0.037207 -0.446287 3.939038 7.948720 0.746818 -0.000000 -0.000002 -0.000003 -1.419511 -1.853966 -23.681374 0.553864 2.710301 -23.095685 0.000002 -0.000001 0.000002 1.223489 3.923174 -34.629927 0.750139 3.130228 -26.946609 -0.000000 -0.000002 0.000001 2.228511 5.075429 -47.388122 1.001463 3.581098 -31.237833 -0.000002 0.000001 0.000000 8.533384 9.003455 -58.935981 1.274863 -0.088413 -35.589049 0.000004 -0.000003 0.000002 0.000003 0.000002 0.000003 0.000003 0.000002 0.000003 0.000002 0.000002 0.000003 0.000004 -0.000002 -0.000000 0.000004 -0.000002 -0.000003 0.000004 -0.000002 -0.000000 0.000003 -0.000002 0.000001 0.928241 13.217079 12.305460 31.960299 15.519375 -0.937772 0.007263 90.315291 -0.007603 -13.735467 11.613781 -9.416046 10.101297 -1.357143 5.316454 4.637190 -8.634128 -0.225406 0.000003 -0.000003 0.000001 1.604634 -4.447604 39.661314 1.604617 -4.447589 39.661314 -0.000000 0.000002 0.000000 1.672628 -4.528435 40.079509 1.637966 -4.487390 40.089416 0.000000 -0.000000 0.000001 1.748552 -4.616570 40.540772 1.674801 -4.530624 40.557564 0.000002 0.000001 -0.000001 1.818610 -4.696006 40.961263 1.708323 -4.569410 40.980554 0.000000 -0.000000 -0.000001 0.000002 -0.000002 0.000001 -0.000000 -0.000002 0.000003 0.000002 -0.000002 0.000001 -0.000003 -0.000001 0.000001 -0.000003 0.000000 0.000002 -0.000003 -0.000001 0.000001 -0.000003 0.000000 0.000002 0.000001 0.000001 0.000000 0.000001 0.000001 0.000000 0.000001 0.000001 0.000000 0.000001 0.000001 0.000000 0.000001 0.000001 0.000000 0.000001 0.000001 0.000000 0.000001 0.000001 0.000000 0.000001 -0.000001 0.000000 -0.000000 -0.000000 0.000000 
-5.949066 72.677826 28.226166 9.705829 -31.292478 8.724219 -0.000000 -0.000000 0.000000 -52.454852 1.110015 33.127220 14.762691 6.820918 7.814675 37.601110 -5.440692 -27.719408 -0.000000 -0.000000 0.000000 -0.000000 -0.000000 0.000000 -19.698194 7.428469 -42.956976 49.233178 0.637704 -7.747969 -23.602673 -14.111319 43.405924 0.000000 0.000000 0.000000 -0.000004 0.000002 0.000000 4.089079 2.314219 -2.166342 3.375234 0.432423 0.833934 3.364875 0.487279 0.840249 3.001002 1.283513 0.055827 3.000982 1.283529 0.055823 0.000003 -0.000001 0.000000 3.000992 1.283523 0.055823 3.001066 1.283502 0.055827 0.000001 -0.000001 -0.000000 0.000003 -0.000001 0.000001 2.085488 -14.662285 -12.359459 -20.707950 -10.353261 -43.283459 0.000038 -109.348036 0.000034 -64.643089 0.051725 37.100638 9.245167 -0.037208 -0.446289 3.939037 7.948718 0.746815 0.000002 -0.000001 -0.000006 -1.456224 -1.679928 -24.872202 0.611836 2.842275 -24.292761 0.000003 -0.000000 0.000001 1.285399 4.011106 -35.524791 0.799544 3.225456 -27.837986 -0.000004 -0.000001 0.000001 2.278357 5.120653 -47.949140 1.036580 3.638278 -31.795750 -0.000001 0.000001 -0.000000 8.573254 8.995747 -59.193834 1.292700 -0.063608 -35.842114 -0.000002 -0.000003 0.000001 0.000005 -0.000001 -0.000001 0.000005 -0.000001 -0.000001 0.000004 -0.000001 -0.000001 -0.000002 0.000001 0.000002 -0.000001 0.000001 -0.000003 -0.000002 0.000001 0.000002 -0.000002 0.000002 0.000001 1.080227 11.743297 12.236874 34.911515 12.733879 -1.326039 0.001312 90.555611 -0.001585 -13.598171 11.736660 -9.846099 10.101296 -1.357144 5.316453 4.637191 -8.634128 -0.225408 0.000000 -0.000000 -0.000001 1.666707 -4.521203 40.455098 1.666693 -4.521187 40.455105 -0.000002 -0.000003 -0.000002 1.674575 -4.530365 40.503005 1.670814 -4.526003 40.507345 0.000001 -0.000001 0.000001 1.683317 -4.540561 40.556751 1.675145 -4.531019 40.561918 0.000002 0.000001 -0.000001 1.691368 -4.549928 40.606629 1.678848 -4.535337 40.608859 -0.000001 0.000005 0.000000 0.000000 0.000000 -0.000002 0.000000 0.000001 0.000004 0.000000 -0.000000 0.000000 0.000002 0.000002 0.000002 0.000002 0.000003 0.000003 0.000002 0.000002 0.000002 0.000002 0.000003 0.000003 0.000002 0.000001 -0.000000 0.000002 0.000001 -0.000000 0.000002 0.000001 -0.000000 0.000002 0.000001 -0.000000 0.000002 0.000001 -0.000000 0.000002 0.000001 -0.000000 0.000002 0.000001 -0.000000 -0.000000 -0.000003 0.000000 -0.000000 -0.000000 0.000000 
-7.124470 74.158585 24.518955 9.022148 -26.935604 9.062324 -0.000000 -0.000000 -0.000000 -50.754156 0.394582 29.964641 16.951392 7.038771 6.425203 33.670217 -4.628013 -27.338944 0.000000 -0.000000 -0.000000 -0.000000 0.000000 0.000001 -19.639423 7.056272 -41.832047 52.690982 -2.685753 -6.043225 -25.028554 -14.166689 43.043528 0.000000 0.000002 -0.000000 -0.000002 0.000003 -0.000003 4.595276 1.892958 -2.436241 3.613051 0.391385 0.633258 3.604813 0.438894 0.640359 2.824544 1.089495 -0.164232 2.824548 1.089494 -0.164233 -0.000001 0.000002 -0.000000 2.824531 1.089525 -0.164244 2.824623 1.089455 -0.164225 -0.000000 -0.000001 -0.000001 -0.000001 0.000002 -0.000001 2.136852 -14.758353 -12.363571 -20.501771 -11.354632 -44.487536 0.000097 -110.160098 0.000089 -59.870023 0.366995 35.617695 9.245166 -0.037205 -0.446292 3.939035 7.948714 0.746822 0.000002 0.000002 -0.000009 -1.488941 -1.507224 -26.048644 0.671843 2.971454 -25.475810 0.000001 0.000001 0.000002 1.347624 4.096655 -36.404871 0.849604 3.318311 -28.714692 -0.000003 -0.000000 0.000001 2.327251 5.164128 -48.494483 1.071245 3.693535 -32.338128 -0.000001 -0.000002 0.000001 8.610509 8.988361 -59.435077 1.309470 -0.040492 -36.078937 0.000000 0.000000 0.000000 0.000005 0.000000 -0.000000 0.000005 0.000000 -0.000000 0.000004 0.000001 0.000000 0.000002 0.000000 -0.000002 0.000003 -0.000000 -0.000005 0.000002 0.000000 -0.000002 0.000001 0.000001 -0.000002 1.152255 11.079182 12.208803 34.406245 14.488703 1.145555 -0.000364 88.089414 0.000512 -12.245591 12.827275 -9.990997 10.101297 -1.357144 5.316452 4.637193 -8.634137 -0.225400 -0.000000 0.000000 -0.000002 1.674978 -4.530863 40.560129 1.674981 -4.530872 40.560139 0.000000 0.000001 0.000000 1.674915 -4.530759 40.559152 1.675204 -4.531100 40.562786 -0.000001 0.000002 0.000002 1.674916 -4.530753 40.559159 1.675204 -4.531103 40.562786 0.000001 -0.000001 -0.000000 1.674987 -4.530876 40.560136 1.674974 -4.530846 40.560136 0.000000 0.000002 -0.000001 -0.000003 -0.000002 -0.000001 -0.000002 -0.000002 0.000003 -0.000003 -0.000002 0.000002 -0.000003 0.000003 0.000003 -0.000003 0.000003 0.000004 -0.000003 0.000003 0.000003 -0.000003 0.000004 0.000004 0.000002 0.000001 -0.000000 0.000002 0.000001 -0.000000 0.000002 0.000001 -0.000000 0.000002 0.000001 -0.000000 0.000002 0.000001 -0.000000 0.000002 0.000001 -0.000000 0.000002 0.000001 -0.000000 -0.000001 -0.000000 -0.000000 -0.000000 -0.000000 -0.000000 
-8.158731 75.443848 20.912874 8.805006 -23.874689 9.807851 0.000001 0.000001 -0.000000 -49.587235 -1.216256 28.019663 24.366756 6.411528 4.672937 24.808051 -4.089649 -28.461586 0.000000 -0.000000 -0.000000 -0.000001 0.000000 0.000002 -21.428793 6.734850 -41.130993 55.378979 -3.697972 -5.072451 -25.581951 -14.349396 42.605497 0.000000 0.000001 0.000000 -0.000001 0.000004 0.000002 5.449349 1.257722 -3.407985 3.886366 0.318702 0.186794 3.881500 0.355965 0.194395 2.368165 0.983506 -0.357533 2.368187 0.983503 -0.357533 0.000003 0.000002 -0.000001 2.368251 0.983518 -0.357537 2.368166 0.983504 -0.357533 0.000000 -0.000001 -0.000000 0.000003 0.000002 -0.000001 2.160342 -14.762609 -12.363338 -20.681680 -11.999854 -43.303287 -0.000127 -111.918995 -0.000121 -56.359743 0.530276 35.055075 9.245167 -0.037208 -0.446289 3.939035 7.948715 0.746818 0.000001 -0.000000 -0.000003 -1.517490 -1.337860 -27.198122 0.733058 3.096485 -26.632239 0.000000 0.000000 -0.000000 1.409357 4.178862 -37.260495 0.899592 3.407861 -29.567042 0.000000 -0.000001 -0.000000 2.374545 5.205407 -49.017703 1.105010 3.746198 -32.858503 -0.000001 -0.000001 0.000000 8.644608 8.981426 -59.656190 1.324934 -0.019336 -36.296001 0.000000 -0.000005 0.000001 0.000003 -0.000001 -0.000003 0.000003 -0.000001 -0.000003 0.000002 -0.000001 -0.000003 -0.000001 0.000000 -0.000001 -0.000000 -0.000001 -0.000003 -0.000001 0.000000 -0.000001 -0.000001 0.000001 -0.000001 1.170863 11.211155 12.213814 32.676055 17.381341 4.033689 0.000176 85.259045 -0.000212 -10.789348 14.219543 -10.007790 10.101300 -1.357147 5.316463 4.637194 -8.634138 -0.225401 0.000001 0.000001 -0.000000 1.674988 -4.530879 40.560132 1.674974 -4.530859 40.560149 -0.000002 -0.000004 0.000002 1.674920 -4.530770 40.559159 1.675194 -4.531112 40.562803 0.000001 -0.000002 0.000002 1.674919 -4.530759 40.559152 1.675192 -4.531116 40.562803 0.000001 0.000004 -0.000000 1.674998 -4.530881 40.560139 1.674962 -4.530854 40.560149 0.000002 0.000002 -0.000001 0.000000 0.000005 -0.000004 -0.000000 0.000003 -0.000003 0.000000 0.000005 -0.000002 -0.000001 0.000000 -0.000000 -0.000001 0.000001 -0.000000 -0.000001 0.000000 -0.000000 -0.000001 0.000001 -0.000000 0.000001 -0.000001 0.000000 0.000001 -0.000001 0.000000 0.000001 -0.000001 0.000000 0.000001 -0.000001 0.000000 0.000001 -0.000001 0.000000 0.000001 -0.000001 0.000000 0.000001 -0.000001 0.000000 0.000001 -0.000001 -0.000000 0.000001 0.000001 -0.000000 
